<?xml version="1.0" standalone="no"?><!DOCTYPE svg PUBLIC "-//W3C//DTD SVG 1.1//EN" "http://www.w3.org/Graphics/SVG/1.1/DTD/svg11.dtd"><svg height="1024" node-id="1" sillyvg="true" template-height="1024" template-width="1024" version="1.1" viewBox="0 0 1024 1024" width="1024" xmlns="http://www.w3.org/2000/svg" xmlns:xlink="http://www.w3.org/1999/xlink"><defs node-id="64"><linearGradient gradientUnits="objectBoundingBox" id="linearGradient-3" node-id="6" spreadMethod="pad" x1="1.1591349" x2="0.5" y1="-0.337185" y2="0.6488408"><stop offset="0" stop-color="#6cadff"></stop><stop offset="1" stop-color="#ffffff" stop-opacity="0"></stop></linearGradient><linearGradient gradientUnits="objectBoundingBox" id="linearGradient-4" node-id="9" spreadMethod="pad" x1="0.10503183" x2="0.70498055" y1="-0.20569195" y2="1"><stop offset="0" stop-color="#6cadff"></stop><stop offset="1" stop-color="#ffffff" stop-opacity="0"></stop></linearGradient><linearGradient gradientUnits="objectBoundingBox" id="linearGradient-5" node-id="12" spreadMethod="pad" x1="1.0019176" x2="0.38801584" y1="-0.97780454" y2="1.0473608"><stop offset="0" stop-color="#6cadff"></stop><stop offset="1" stop-color="#ffffff"></stop></linearGradient><linearGradient gradientUnits="objectBoundingBox" id="linearGradient-6" node-id="15" spreadMethod="pad" x1="0.5" x2="0.5" y1="-0.27901396" y2="1"><stop offset="0" stop-color="#6cadff"></stop><stop offset="1" stop-color="#ffffff" stop-opacity="0"></stop></linearGradient><linearGradient gradientUnits="objectBoundingBox" id="linearGradient-7" node-id="18" spreadMethod="pad" x1="0.5" x2="0.5" y1="-0.27901396" y2="1"><stop offset="0" stop-color="#6cadff"></stop><stop offset="1" stop-color="#ffffff" stop-opacity="0"></stop></linearGradient><linearGradient gradientUnits="objectBoundingBox" id="linearGradient-8" node-id="21" spreadMethod="pad" x1="0.5" x2="0.5" y1="-2.211569" y2="1"><stop offset="0" stop-color="#d2d2d2"></stop><stop offset="1" stop-color="#d2d2d2" stop-opacity="0"></stop></linearGradient><linearGradient gradientUnits="objectBoundingBox" id="linearGradient-9" node-id="24" spreadMethod="pad" x1="0.3484688" x2="0.64426756" y1="0.45028317" y2="0.5536467"><stop offset="0" stop-color="#ebebeb" stop-opacity="0"></stop><stop offset="1" stop-color="#a0a0a0"></stop></linearGradient><linearGradient gradientUnits="objectBoundingBox" id="linearGradient-10" node-id="27" spreadMethod="pad" x1="0.0000000000000026812936" x2="1" y1="0.5" y2="0.5"><stop offset="0" stop-color="#ffffff"></stop><stop offset="1" stop-color="#ffffff"></stop></linearGradient><linearGradient gradientUnits="objectBoundingBox" id="linearGradient-11" node-id="30" spreadMethod="pad" x1="0" x2="0.999736" y1="0.5" y2="0.5"><stop offset="0" stop-color="#dff6f4"></stop><stop offset="1" stop-color="#c1deff"></stop></linearGradient><mask height="660.89514" id="mask-2" maskUnits="userSpaceOnUse" node-id="35" width="1228.8" x="995.4456" y="1755.1996"><path d="M 1120.00 1572.30 L 2099.70 1572.30 L 2102.60 1572.50 L 2105.50 1573.00 L 2108.20 1573.90 L 2110.80 1575.20 L 2113.20 1576.80 L 2115.40 1578.70 L 2117.30 1581.00 L 2120.20 1585.90 L 2121.60 1591.50 L 2121.80 1594.40 L 2121.80 2574.10 L 2121.70 2577.10 L 2120.20 2582.60 L 2117.30 2587.60 L 2115.40 2589.80 L 2113.20 2591.70 L 2110.80 2593.30 L 2108.20 2594.60 L 2105.50 2595.50 L 2102.60 2596.10 L 1120.00 2596.30 L 1117.10 2596.10 L 1111.50 2594.60 L 1106.50 2591.70 L 1104.30 2589.80 L 1102.40 2587.60 L 1099.50 2582.60 L 1098.00 2577.10 L 1097.80 2574.10 L 1097.80 1594.40 L 1098.10 1591.30 L 1099.60 1585.80 L 1100.90 1583.20 L 1103.10 1580.10 L 1105.70 1577.50 L 1108.80 1575.30 L 1111.40 1574.00 L 1116.90 1572.50 L 1120.00 1572.30 Z" fill="#ffffff" fill-rule="evenodd" node-id="123" stroke="none" target-height="1024" target-width="1024" target-x="1097.8" target-y="1572.3"></path></mask></defs><g node-id="125"><g node-id="127"><g node-id="128"><g node-id="129"><g node-id="132"><path d="M 755.00 736.10 L 751.90 727.40 L 749.80 717.60 L 749.00 707.50 L 749.40 697.40 L 750.60 690.70 L 752.40 684.40 L 754.90 678.60 L 758.30 673.20 L 762.40 668.50 L 767.40 664.50 L 769.50 666.10 L 770.90 668.10 L 771.60 670.50 L 771.60 673.10 L 769.60 689.30 L 769.40 701.80 L 770.10 707.30 L 771.50 710.40 L 772.80 711.50 L 774.60 711.40 L 777.40 709.80 L 781.60 705.30 L 788.60 694.90 L 814.40 649.50 L 821.60 638.70 L 829.60 628.30 L 836.30 621.50 L 842.80 616.40 L 849.00 612.90 L 855.70 610.50 L 861.70 609.50 L 867.20 609.70 L 872.40 611.10 L 876.80 613.60 L 880.30 617.30 L 882.90 621.80 L 884.40 627.30 L 884.70 634.40 L 883.70 641.30 L 881.10 649.60 L 876.50 659.50 L 863.00 681.20 L 858.60 689.00 L 854.80 696.70 L 851.90 704.30 L 850.80 710.10 L 851.00 713.60 L 852.30 715.90 L 854.70 717.40 L 857.80 717.70 L 860.90 717.10 L 867.60 714.60 L 881.30 708.40 L 887.90 706.30 L 892.40 705.60 L 896.70 705.90 L 901.10 707.20 L 904.50 709.40 L 907.30 712.10 L 909.40 715.40 L 911.50 721.00 L 912.60 727.40 L 912.60 733.90 L 911.80 740.20 L 909.10 749.40 L 904.70 758.70 L 898.80 767.40 L 891.40 775.20 L 885.80 779.60 L 879.80 783.30 L 873.10 786.10 L 866.20 788.00 L 858.80 788.80 L 850.80 788.40 L 838.10 786.10 L 823.80 782.40 L 809.50 777.50 L 795.40 771.50 L 786.30 766.70 L 778.10 761.50 L 770.80 756.00 L 764.10 749.70 L 758.90 743.20 L 755.10 736.40 Z" fill="url(#linearGradient-3)" fill-rule="nonzero" group-id="1,3,4,5,8" id="路径" node-id="42" stroke="none" target-height="179.29999" target-width="163.59998" target-x="749" target-y="609.5"></path><path d="M 202.50 678.50 L 194.30 674.10 L 186.20 668.20 L 178.80 661.30 L 172.30 653.50 L 167.10 644.80 L 163.80 635.80 L 162.60 629.60 L 162.60 623.40 L 163.60 617.10 L 166.20 616.90 L 168.60 617.40 L 170.70 618.60 L 172.40 620.60 L 181.90 633.90 L 190.10 643.30 L 194.30 646.90 L 197.40 648.30 L 199.10 648.20 L 200.40 646.90 L 201.40 643.90 L 201.50 637.70 L 199.70 625.30 L 188.30 574.50 L 186.30 561.60 L 185.40 548.50 L 185.80 538.90 L 187.20 530.80 L 189.50 524.10 L 192.80 517.80 L 196.60 513.00 L 200.80 509.50 L 205.70 507.10 L 210.60 506.10 L 215.70 506.30 L 220.50 507.90 L 225.40 511.10 L 230.30 516.10 L 234.20 521.90 L 237.90 529.80 L 241.10 540.20 L 245.60 565.40 L 247.60 574.10 L 250.00 582.40 L 252.90 589.90 L 256.00 595.00 L 258.50 597.40 L 261.00 598.20 L 263.80 597.80 L 266.30 595.90 L 268.10 593.30 L 271.50 586.90 L 277.50 573.20 L 280.90 567.20 L 283.80 563.80 L 287.20 561.20 L 291.30 559.30 L 295.40 558.50 L 299.20 558.70 L 303.00 559.70 L 308.40 562.40 L 313.40 566.50 L 317.80 571.30 L 321.40 576.50 L 325.20 583.60 L 329.30 592.80 L 332.90 602.80 L 336.00 613.60 L 338.20 624.80 L 339.10 635.70 L 338.90 642.90 L 338.00 649.50 L 336.30 655.60 L 333.60 661.30 L 330.00 666.20 L 325.20 670.30 L 319.60 673.60 L 312.90 676.70 L 305.00 679.40 L 292.60 682.60 L 278.90 684.80 L 264.70 686.20 L 250.60 686.60 L 236.60 686.00 L 223.90 684.50 L 212.00 682.00 L 202.70 678.70 Z" fill="url(#linearGradient-4)" fill-rule="nonzero" group-id="1,3,4,5,8" id="路径" node-id="43" stroke="none" target-height="180.49997" target-width="176.5" target-x="162.6" target-y="506.1"></path><path d="M 811.10 522.50 L 807.30 527.90 L 804.10 534.00 L 801.90 540.40 L 800.80 546.90 L 800.90 553.60 L 802.60 560.20 L 804.80 564.10 L 813.10 572.50 L 814.80 576.10 L 815.40 581.60 L 814.20 587.70 L 812.10 593.50 L 809.20 599.00 L 803.00 608.80 L 796.00 618.00 L 788.20 626.50 L 792.70 631.10 L 795.70 636.50 L 797.30 642.60 L 797.30 649.00 L 795.80 655.20 L 793.30 661.10 L 790.00 666.50 L 785.80 671.30 L 782.70 674.20 L 778.90 676.30 L 775.00 676.70 L 771.10 676.30 L 758.50 673.50 L 746.30 669.60 L 734.50 664.60 L 729.10 661.70 L 724.20 658.30 L 720.10 654.00 L 717.40 648.90 L 716.60 644.70 L 716.80 641.80 L 717.80 639.70 L 720.40 637.10 L 728.90 631.90 L 731.70 628.80 L 733.80 624.10 L 735.10 619.00 L 736.70 608.60 L 738.50 590.80 L 740.00 585.10 L 741.80 581.90 L 744.30 579.40 L 747.90 577.60 L 762.30 574.90 L 766.90 572.80 L 770.70 569.80 L 773.80 566.10 L 777.50 559.70 L 785.20 542.70 L 787.30 538.90 L 789.80 535.60 L 792.90 532.90 L 796.90 530.50 L 808.80 524.40 L 811.10 522.50 Z M 781.60 579.70 L 777.80 584.50 L 768.70 597.30 L 763.50 605.90 L 758.00 616.00 L 753.20 626.80 L 749.30 638.40 L 747.40 646.30 L 746.30 654.20 L 746.00 662.10 L 757.90 662.10 L 758.90 654.10 L 762.50 633.90 L 765.50 621.30 L 769.70 607.20 L 775.00 593.20 L 781.60 579.70 Z" fill="url(#linearGradient-5)" fill-rule="nonzero" group-id="1,3,4,5,8" id="形状结合" node-id="44" stroke="none" target-height="154.20001" target-width="98.80005" target-x="716.6" target-y="522.5"></path><path d="M 287.80 298.80 L 287.10 292.30 L 285.00 286.40 L 281.60 281.20 L 277.10 276.90 L 271.70 273.80 L 265.50 271.90 L 259.00 271.60 L 252.90 272.70 L 247.20 275.20 L 242.20 279.00 L 238.30 283.80 L 235.40 289.60 L 229.40 290.40 L 223.90 292.60 L 219.20 296.10 L 215.50 300.90 L 213.20 306.60 L 212.50 312.40 L 213.40 318.30 L 215.90 323.80 L 219.70 328.50 L 224.50 331.90 L 230.10 333.90 L 236.10 334.50 L 285.60 334.50 L 290.20 333.80 L 294.20 332.10 L 297.70 329.50 L 300.50 326.10 L 302.30 322.20 L 303.30 317.70 L 302.90 313.00 L 301.60 308.90 L 299.20 305.20 L 296.10 302.10 L 292.30 300.00 Z" fill="url(#linearGradient-6)" fill-rule="nonzero" group-id="1,3,4,5,8" id="路径" node-id="45" stroke="none" target-height="62.899994" target-width="90.79999" target-x="212.5" target-y="271.6"></path><path d="M 492.10 271.70 L 491.70 266.10 L 490.50 261.10 L 488.50 256.30 L 484.20 249.90 L 478.60 244.70 L 474.30 241.90 L 469.50 239.90 L 464.20 238.50 L 458.80 238.00 L 453.60 238.40 L 448.60 239.50 L 441.60 242.60 L 435.40 247.20 L 431.90 251.00 L 429.10 255.40 L 426.90 260.30 L 421.80 260.90 L 417.10 262.20 L 412.80 264.40 L 408.90 267.20 L 405.60 270.60 L 402.90 274.60 L 400.80 279.00 L 399.70 283.70 L 399.20 288.80 L 399.80 293.90 L 401.10 298.60 L 403.30 302.90 L 406.20 306.80 L 409.60 310.10 L 413.50 312.80 L 417.90 314.80 L 422.60 316.00 L 427.80 316.40 L 489.20 316.40 L 494.90 315.70 L 500.10 313.60 L 504.50 310.30 L 508.00 306.10 L 510.50 301.10 L 511.60 295.40 L 511.20 289.70 L 509.40 284.40 L 506.40 279.80 L 502.40 276.00 L 497.60 273.30 L 492.00 271.90 Z" fill="url(#linearGradient-7)" fill-rule="nonzero" group-id="1,3,4,5,8" id="路径" node-id="46" stroke="none" target-height="78.399994" target-width="112.399994" target-x="399.2" target-y="238"></path></g><path d="M 1024.00 788.40 L 999.60 772.40 L 973.80 757.20 L 946.70 742.60 L 918.00 728.80 L 889.20 716.20 L 859.10 704.50 L 827.80 693.70 L 795.30 683.70 L 762.70 675.00 L 729.10 667.40 L 694.50 660.70 L 658.90 655.20 L 623.30 650.90 L 587.00 647.80 L 549.90 645.90 L 512.00 645.20 L 474.10 645.90 L 437.00 647.80 L 400.60 650.90 L 365.10 655.20 L 329.50 660.70 L 294.90 667.40 L 261.30 675.00 L 228.70 683.70 L 196.20 693.70 L 164.90 704.50 L 134.80 716.20 L 105.90 728.80 L 77.30 742.60 L 50.20 757.20 L 24.40 772.40 L 0.00 788.40 Z" fill="url(#linearGradient-8)" fill-rule="nonzero" group-id="1,3,4,5" id="路径" node-id="47" stroke="none" target-height="143.20001" target-width="1024" target-x="0" target-y="645.2"></path></g><path d="M 281.90 621.70 L 426.50 621.70 L 572.10 716.80 L 429.70 714.00 Z" fill="url(#linearGradient-9)" fill-rule="nonzero" group-id="1,3,4" id="矩形" node-id="48" stroke="none" target-height="95.099976" target-width="290.19998" target-x="281.9" target-y="621.7"></path><g node-id="130"><path d="M 447.00 358.70 L 632.60 358.70 L 640.80 359.50 L 648.30 361.50 L 655.20 364.80 L 661.60 369.30 L 666.90 374.60 L 671.40 380.90 L 674.70 387.90 L 676.70 395.40 L 677.50 403.60 L 677.50 672.80 L 676.70 681.00 L 674.70 688.50 L 671.40 695.50 L 666.90 701.80 L 661.60 707.10 L 655.20 711.60 L 648.30 714.90 L 640.80 717.00 L 632.60 717.70 L 447.00 717.70 L 438.80 717.00 L 431.20 714.90 L 424.30 711.60 L 418.00 707.10 L 412.60 701.80 L 408.20 695.50 L 404.90 688.50 L 402.80 681.00 L 402.00 672.80 L 402.00 403.60 L 402.80 395.40 L 404.90 387.90 L 408.20 380.90 L 412.60 374.60 L 418.00 369.30 L 424.30 364.80 L 431.20 361.50 L 438.80 359.50 Z" fill="#64adff" fill-rule="nonzero" group-id="1,3,4,6" id="矩形" node-id="50" stroke="none" target-height="359" target-width="275.5" target-x="402" target-y="358.7"></path><path d="M 448.40 379.10 L 631.10 379.10 L 636.50 379.70 L 641.50 381.00 L 646.20 383.20 L 650.40 386.20 L 653.90 389.80 L 656.90 394.00 L 659.10 398.60 L 660.50 403.60 L 661.00 409.00 L 661.00 667.40 L 660.50 672.80 L 659.10 677.80 L 656.90 682.40 L 653.90 686.60 L 650.40 690.20 L 646.20 693.20 L 641.50 695.40 L 636.50 696.70 L 631.10 697.30 L 448.40 697.30 L 443.00 696.70 L 438.00 695.40 L 433.30 693.20 L 429.10 690.20 L 425.60 686.60 L 422.60 682.40 L 420.40 677.80 L 419.00 672.80 L 418.50 667.40 L 418.50 409.00 L 419.00 403.60 L 420.40 398.60 L 422.60 394.00 L 425.60 389.80 L 429.10 386.20 L 433.30 383.20 L 438.00 381.00 L 443.00 379.70 Z" fill="#ffffff" fill-opacity="0.6" fill-rule="nonzero" group-id="1,3,4,6" id="矩形" node-id="51" stroke="none" target-height="318.19998" target-width="242.5" target-x="418.5" target-y="379.1"></path><path d="M 599.40 358.10 L 567.40 358.10 L 569.80 352.10 L 570.80 346.10 L 570.60 339.90 L 569.30 333.90 L 566.70 328.40 L 563.00 323.10 L 558.20 318.80 L 553.00 315.70 L 547.20 313.60 L 541.10 312.70 L 535.00 313.10 L 528.70 314.70 L 523.00 317.60 L 518.20 321.40 L 514.20 326.10 L 511.10 331.50 L 509.30 337.30 L 508.60 343.70 L 508.90 348.60 L 510.10 353.40 L 512.00 358.00 L 480.00 358.00 L 477.50 358.50 L 475.50 359.90 L 474.20 361.90 L 473.60 364.40 L 473.60 385.20 L 474.20 387.70 L 475.50 389.70 L 477.50 391.10 L 480.00 391.60 L 599.20 391.60 L 601.70 391.10 L 603.80 389.70 L 605.10 387.70 L 605.60 385.20 L 605.60 364.50 L 605.10 362.00 L 603.80 360.00 L 601.80 358.70 Z" fill="#64adff" fill-rule="nonzero" group-id="1,3,4,6" id="路径" node-id="52" stroke="none" target-height="78.899994" target-width="131.99997" target-x="473.6" target-y="312.7"></path><path d="M 489.30 480.40 L 453.00 480.40 L 450.30 479.90 L 448.20 478.40 L 446.70 476.30 L 446.10 473.60 L 446.70 471.00 L 448.20 468.80 L 450.30 467.30 L 453.00 466.80 L 489.40 466.80 L 492.10 467.30 L 494.20 468.80 L 495.70 471.00 L 496.20 473.60 L 495.70 476.30 L 494.20 478.40 L 492.10 479.90 L 489.40 480.40 Z" fill="#ffffff" fill-rule="nonzero" group-id="1,3,4,6" id="路径" node-id="53" stroke="none" target-height="13.600006" target-width="50.100006" target-x="446.1" target-y="466.8"></path><path d="M 547.00 517.10 L 450.50 517.10 L 447.90 516.60 L 445.70 515.10 L 444.30 513.00 L 443.70 510.30 L 444.30 507.60 L 445.70 505.50 L 447.90 504.00 L 450.50 503.50 L 547.00 503.50 L 549.70 504.00 L 551.80 505.50 L 553.30 507.60 L 553.80 510.30 L 553.30 513.00 L 551.80 515.10 L 549.70 516.60 Z" fill="#ffffff" fill-rule="nonzero" group-id="1,3,4,6" id="路径" node-id="54" stroke="none" target-height="13.599976" target-width="110.099976" target-x="443.7" target-y="503.5"></path><path d="M 547.00 555.00 L 450.50 555.00 L 447.90 554.40 L 445.70 553.00 L 444.30 550.80 L 443.70 548.20 L 444.30 545.50 L 445.70 543.30 L 447.90 541.90 L 450.50 541.30 L 547.00 541.30 L 549.70 541.90 L 551.80 543.30 L 553.30 545.50 L 553.80 548.20 L 553.30 550.80 L 551.80 553.00 L 549.70 554.40 Z" fill="#ffffff" fill-rule="nonzero" group-id="1,3,4,6" id="路径" node-id="55" stroke="none" target-height="13.700012" target-width="110.099976" target-x="443.7" target-y="541.3"></path><path d="M 557.80 343.20 L 557.20 348.00 L 555.40 352.30 L 552.60 355.90 L 548.90 358.80 L 544.70 360.50 L 539.80 361.20 L 534.90 360.50 L 530.70 358.80 L 527.00 355.90 L 524.10 352.30 L 522.40 348.00 L 521.70 343.20 L 522.40 338.20 L 524.10 334.10 L 527.00 330.40 L 530.70 327.50 L 534.90 325.80 L 539.80 325.10 L 544.70 325.80 L 548.90 327.50 L 552.60 330.40 L 555.40 334.10 L 557.20 338.20 Z" fill="url(#linearGradient-10)" fill-rule="nonzero" group-id="1,3,4,6" id="椭圆形" node-id="56" stroke="none" target-height="36.100006" target-width="36.099976" target-x="521.7" target-y="325.1"></path></g><g node-id="131"><path d="M 676.10 618.10 L 675.40 628.10 L 673.50 637.50 L 670.50 646.40 L 666.30 654.80 L 661.20 662.50 L 655.20 669.50 L 648.30 675.60 L 640.70 680.80 L 632.50 685.00 L 623.70 688.20 L 614.50 690.10 L 604.70 690.80 L 594.90 690.10 L 585.60 688.20 L 576.90 685.00 L 568.60 680.80 L 561.10 675.60 L 554.20 669.50 L 548.10 662.50 L 543.00 654.80 L 538.90 646.40 L 535.80 637.50 L 533.90 628.10 L 533.30 618.10 L 533.90 608.20 L 535.80 598.70 L 538.90 589.90 L 543.00 581.40 L 548.10 573.70 L 554.20 566.80 L 561.10 560.60 L 568.60 555.40 L 576.90 551.20 L 585.60 548.10 L 594.90 546.20 L 604.70 545.50 L 614.50 546.20 L 623.70 548.10 L 632.50 551.20 L 640.70 555.40 L 648.30 560.60 L 655.20 566.80 L 661.20 573.70 L 666.30 581.40 L 670.50 589.90 L 673.50 598.70 L 675.40 608.20 Z" fill="none" group-id="1,3,4,7" id="椭圆形" node-id="58" stroke="#77b7ff" stroke-linecap="butt" stroke-width="19.345785" target-height="145.29999" target-width="142.79999" target-x="533.3" target-y="545.5"></path><path d="M 669.30 618.10 L 668.70 627.00 L 667.00 635.30 L 664.20 643.20 L 660.40 650.80 L 655.80 657.60 L 650.40 663.80 L 644.20 669.20 L 637.30 673.80 L 629.80 677.60 L 621.90 680.40 L 613.50 682.10 L 604.70 682.70 L 595.80 682.10 L 587.40 680.40 L 579.50 677.60 L 572.00 673.80 L 565.20 669.20 L 559.00 663.80 L 553.50 657.60 L 548.90 650.80 L 545.10 643.20 L 542.30 635.30 L 540.70 627.00 L 540.10 618.10 L 540.70 609.30 L 542.30 600.90 L 545.10 593.00 L 548.90 585.50 L 553.50 578.70 L 559.00 572.50 L 565.20 567.00 L 572.00 562.40 L 579.50 558.70 L 587.40 555.90 L 595.80 554.20 L 604.70 553.60 L 613.50 554.20 L 621.90 555.90 L 629.80 558.70 L 637.30 562.40 L 644.20 567.00 L 650.40 572.50 L 655.80 578.70 L 660.40 585.50 L 664.20 593.00 L 667.00 600.90 L 668.70 609.30 Z" fill="url(#linearGradient-11)" fill-opacity="0.40032086" fill-rule="nonzero" group-id="1,3,4,7" id="椭圆形" node-id="59" stroke="none" target-height="129.10004" target-width="129.20001" target-x="540.1" target-y="553.6"></path><path d="M 567.30 626.70 L 563.80 626.20 L 560.80 625.00 L 558.10 622.90 L 556.10 620.30 L 554.80 617.30 L 554.30 613.80 L 554.90 606.70 L 556.10 600.80 L 558.60 593.40 L 560.90 588.50 L 564.10 583.60 L 568.30 578.60 L 573.70 574.20 L 579.70 570.70 L 586.30 568.20 L 593.70 566.60 L 602.10 566.00 L 605.60 566.50 L 608.70 567.80 L 611.30 569.90 L 613.30 572.50 L 614.60 575.60 L 615.10 579.10 L 614.60 582.70 L 613.30 585.70 L 611.20 588.40 L 608.50 590.40 L 605.50 591.70 L 596.10 592.70 L 592.00 593.80 L 589.10 595.30 L 585.60 598.50 L 583.60 601.50 L 581.40 607.50 L 579.90 617.30 L 578.60 620.30 L 576.50 622.90 L 573.90 625.00 L 570.80 626.20 Z" fill="#ffffff" fill-rule="nonzero" group-id="1,3,4,7" id="路径" node-id="60" stroke="none" target-height="60.700012" target-width="60.799988" target-x="554.3" target-y="566"></path><path d="M 659.10 700.90 L 682.10 676.40 L 732.50 723.50 L 709.50 748.00 Z" fill="#77b7ff" fill-rule="nonzero" group-id="1,3,4,7" id="矩形" node-id="61" stroke="none" target-height="71.599976" target-width="73.400024" target-x="659.1" target-y="676.4"></path><path d="M 651.60 680.50 L 661.30 670.20 L 680.00 687.70 L 670.40 698.00 Z" fill="#77b7ff" fill-rule="nonzero" group-id="1,3,4,7" id="矩形" node-id="62" stroke="none" target-height="27.799988" target-width="28.400024" target-x="651.6" target-y="670.2"></path></g></g></g></g></svg>